<?xml version="1.0" encoding="UTF-8" standalone="no"?>
<!-- Created with Inkscape (http://www.inkscape.org/) -->

<svg
   xmlns:dc="http://purl.org/dc/elements/1.1/"
   xmlns:cc="http://creativecommons.org/ns#"
   xmlns:rdf="http://www.w3.org/1999/02/22-rdf-syntax-ns#"
   xmlns:svg="http://www.w3.org/2000/svg"
   xmlns="http://www.w3.org/2000/svg"
   xmlns:sodipodi="http://sodipodi.sourceforge.net/DTD/sodipodi-0.dtd"
   xmlns:inkscape="http://www.inkscape.org/namespaces/inkscape"
   width="210mm"
   height="297mm"
   viewBox="0 0 210 297"
   version="1.1"
   id="svg4121"
   inkscape:version="0.92.3 (2405546, 2018-03-11)"
   sodipodi:docname="omc.svg"
   inkscape:export-filename="D:\Users\eriqj\Desktop\omc3.png"
   inkscape:export-xdpi="25.4"
   inkscape:export-ydpi="25.4">
  <defs
     id="defs4115" />
  <sodipodi:namedview
     id="base"
     pagecolor="#ffffff"
     bordercolor="#666666"
     borderopacity="1.0"
     inkscape:pageopacity="0.0"
     inkscape:pageshadow="2"
     inkscape:zoom="0.35"
     inkscape:cx="-504.28571"
     inkscape:cy="992.85714"
     inkscape:document-units="mm"
     inkscape:current-layer="layer1"
     showgrid="false"
     inkscape:window-width="1920"
     inkscape:window-height="1017"
     inkscape:window-x="-8"
     inkscape:window-y="-8"
     inkscape:window-maximized="1" />
  <metadata
     id="metadata4118">
    <rdf:RDF>
      <cc:Work
         rdf:about="">
        <dc:format>image/svg+xml</dc:format>
        <dc:type
           rdf:resource="http://purl.org/dc/dcmitype/StillImage" />
        <dc:title />
      </cc:Work>
    </rdf:RDF>
  </metadata>
  <g
     inkscape:label="Layer 1"
     inkscape:groupmode="layer"
     id="layer1">
    <g
       id="g4641"
       transform="matrix(1.8848645,0,0,1.8848645,-101.2433,-177.29283)"
       inkscape:export-xdpi="25.4"
       inkscape:export-ydpi="25.4">
      <path
         d="m -10.751279,208.88406 0.377091,-5.59654 15.676967,-6.72248 -0.7468949,5.22673 -15.3071631,7.09229"
         style="fill:#b21212;fill-opacity:1;fill-rule:evenodd;stroke:none;stroke-width:1.95772803"
         id="path478"
         inkscape:connector-curvature="0" />
      <path
         d="m 15.399148,209.25286 -13.0861713,-8.95314 -0.3684519,5.59853 5.6001613,3.83266 c 2.6233679,-0.0877 5.2403909,-0.24153 7.8544619,-0.47805"
         style="fill:#b21212;fill-opacity:1;fill-rule:evenodd;stroke:none;stroke-width:1.95772803"
         id="path480"
         inkscape:connector-curvature="0" />
      <path
         d="m -10.004723,193.20479 1.4947235,-5.22976 16.0507343,-5.59786 -1.1176657,5.60018 -16.4277921,5.22744"
         style="fill:#b21212;fill-opacity:1;fill-rule:evenodd;stroke:none;stroke-width:1.95772803"
         id="path482"
         inkscape:connector-curvature="0" />
      <path
         d="M 16.87859,202.16721 17.627469,196.93582 4.5582281,186.11251 3.8100356,191.33794 16.87859,202.16721"
         style="fill:#b21212;fill-opacity:1;fill-rule:evenodd;stroke:none;stroke-width:1.95772803"
         id="path484"
         inkscape:connector-curvature="0" />
      <path
         d="m -7.0175867,177.52018 1.8668293,-5.60187 16.4288214,-3.73134 -1.4913997,5.22644 -16.804251,4.10677"
         style="fill:#b21212;fill-opacity:1;fill-rule:evenodd;stroke:none;stroke-width:1.95772803"
         id="path486"
         inkscape:connector-curvature="0" />
      <path
         d="M 18.373669,189.46911 19.491288,183.86889 7.9191276,171.5459 6.7971382,177.1484 18.373652,189.46913"
         style="fill:#b21212;fill-opacity:1;fill-rule:evenodd;stroke:none;stroke-width:1.95772803"
         id="path488"
         inkscape:connector-curvature="0" />
      <path
         d="m -2.164944,162.21266 2.24194889,-5.22675 16.80323411,-1.86852 -2.613051,4.85565 -16.432132,2.23962"
         style="fill:#b21212;fill-opacity:1;fill-rule:evenodd;stroke:none;stroke-width:1.95772803"
         id="path490"
         inkscape:connector-curvature="0" />
      <path
         d="m 21.73158,176.4012 1.866519,-4.85132 -10.827622,-13.81776 -1.865532,5.60316 10.826635,13.06592"
         style="fill:#b21212;fill-opacity:1;fill-rule:evenodd;stroke:none;stroke-width:1.95772803"
         id="path492"
         inkscape:connector-curvature="0" />
      <path
         d="m 3.8130325,147.27961 2.6130503,-4.85565 16.7988892,-0.37114 -2.614348,4.85435 -16.7975915,0.37244"
         style="fill:#b21212;fill-opacity:1;fill-rule:evenodd;stroke:none;stroke-width:1.95772803"
         id="path494"
         inkscape:connector-curvature="0" />
      <path
         d="m 25.840375,164.07753 2.612363,-4.84969 -9.332865,-14.56228 -2.243288,5.22541 8.96379,14.18656"
         style="fill:#b21212;fill-opacity:1;fill-rule:evenodd;stroke:none;stroke-width:1.95772803"
         id="path496"
         inkscape:connector-curvature="0" />
      <path
         d="m 11.279395,133.09073 2.986831,-4.48187 17.173682,1.49406 -3.356601,4.85432 -16.803912,-1.86651"
         style="fill:#b21212;fill-opacity:1;fill-rule:evenodd;stroke:none;stroke-width:1.95772803"
         id="path498"
         inkscape:connector-curvature="0" />
      <path
         d="m 31.814634,152.1309 2.987835,-4.48086 -7.84247,-15.30453 -2.986148,4.47591 7.840783,15.30948"
         style="fill:#b21212;fill-opacity:1;fill-rule:evenodd;stroke:none;stroke-width:1.95772803"
         id="path500"
         inkscape:connector-curvature="0" />
      <path
         d="m 19.867053,120.02315 4.107782,-4.10778 16.428821,2.98648 -3.737513,4.48005 -16.798923,-3.35858"
         style="fill:#b21212;fill-opacity:1;fill-rule:evenodd;stroke:none;stroke-width:1.95772803"
         id="path502"
         inkscape:connector-curvature="0" />
      <path
         d="m 38.534826,140.9302 3.359903,-4.10746 -5.972292,-15.68227 -3.362486,4.10754 5.974959,15.68228"
         style="fill:#b21212;fill-opacity:1;fill-rule:evenodd;stroke:none;stroke-width:1.95772803"
         id="path504"
         inkscape:connector-curvature="0" />
      <path
         d="m 30.32092,108.07424 4.107786,-4.10778 16.426134,5.22641 -4.102294,3.35976 -16.431794,-4.47855"
         style="fill:#b21212;fill-opacity:1;fill-rule:evenodd;stroke:none;stroke-width:1.95772803"
         id="path506"
         inkscape:connector-curvature="0" />
      <path
         d="m 46.375978,130.84913 4.107451,-4.10745 -4.482249,-16.42751 -3.731025,3.73103 4.105823,16.80393"
         style="fill:#b21212;fill-opacity:1;fill-rule:evenodd;stroke:none;stroke-width:1.95772803"
         id="path508"
         inkscape:connector-curvature="0" />
      <path
         d="m 41.896073,96.49909 4.48386,-2.988823 15.674962,6.725143 -4.477218,2.98219 -15.681604,-6.71851"
         style="fill:#b21212;fill-opacity:1;fill-rule:evenodd;stroke:none;stroke-width:1.95772803"
         id="path510"
         inkscape:connector-curvature="0" />
      <path
         d="m 55.338734,121.13882 4.478573,-3.73102 -2.614724,-16.80259 -4.47898,3.73393 2.615047,16.79959"
         style="fill:#b21212;fill-opacity:1;fill-rule:evenodd;stroke:none;stroke-width:1.95772803"
         id="path512"
         inkscape:connector-curvature="0" />
      <path
         d="m 54.593848,86.786116 4.850985,-2.611067 14.935413,8.212258 -4.855292,2.618052 -14.931106,-8.219243"
         style="fill:#b21212;fill-opacity:1;fill-rule:evenodd;stroke:none;stroke-width:1.95772803"
         id="path514"
         inkscape:connector-curvature="0" />
      <path
         d="m 65.422466,112.5528 4.476243,-2.98648 -0.748519,-17.173677 -4.478921,2.9838 0.751197,17.176357"
         style="fill:#b21212;fill-opacity:1;fill-rule:evenodd;stroke:none;stroke-width:1.95772803"
         id="path516"
         inkscape:connector-curvature="0" />
      <path
         d="m 68.032516,78.577525 4.856347,-2.616344 14.18352,9.708947 -5.222087,2.239965 -13.81778,-9.332568"
         style="fill:#b21212;fill-opacity:1;fill-rule:evenodd;stroke:none;stroke-width:1.95772803"
         id="path518"
         inkscape:connector-curvature="0" />
      <path
         d="m 76.618532,105.08642 4.856636,-2.61605 0.747569,-17.175315 -4.856347,2.616344 -0.747858,17.175021"
         style="fill:#b21212;fill-opacity:1;fill-rule:evenodd;stroke:none;stroke-width:1.95772803"
         id="path520"
         inkscape:connector-curvature="0" />
      <path
         d="m 82.222716,71.107165 5.227762,-1.494732 13.065922,10.82864 -5.228776,2.24657 -13.064908,-11.580478"
         style="fill:#b21212;fill-opacity:1;fill-rule:evenodd;stroke:none;stroke-width:1.95772803"
         id="path522"
         inkscape:connector-curvature="0" />
      <path
         d="m 87.44651,98.741709 5.601183,-1.871501 2.613712,-16.796265 -4.85135,1.858513 -3.363545,16.809253"
         style="fill:#b21212;fill-opacity:1;fill-rule:evenodd;stroke:none;stroke-width:1.95772803"
         id="path524"
         inkscape:connector-curvature="0" />
      <path
         d="M 97.157802,65.882747 102.758,64.759791 114.3305,77.082442 108.73063,78.205067 97.157798,65.882751"
         style="fill:#b21212;fill-opacity:1;fill-rule:evenodd;stroke:none;stroke-width:1.95772803"
         id="path526"
         inkscape:connector-curvature="0" />
      <path
         d="m 99.770191,93.880071 5.597509,-1.862552 4.4829,-16.427461 -5.59788,1.862175 -4.482529,16.427838"
         style="fill:#b21212;fill-opacity:1;fill-rule:evenodd;stroke:none;stroke-width:1.95772803"
         id="path528"
         inkscape:connector-curvature="0" />
      <path
         d="m 112.84039,62.144723 5.22876,-0.748846 10.45251,13.44264 -5.22477,0.747531 -10.4565,-13.441325"
         style="fill:#b21212;fill-opacity:1;fill-rule:evenodd;stroke:none;stroke-width:1.95772803"
         id="path530"
         inkscape:connector-curvature="0" />
      <path
         d="m 112.46266,90.150041 5.60383,-1.121315 5.97395,-15.683949 -5.22209,0.75021 -6.35569,16.055054"
         style="fill:#b21212;fill-opacity:1;fill-rule:evenodd;stroke:none;stroke-width:1.95772803"
         id="path532"
         inkscape:connector-curvature="0" />
      <path
         d="m 128.52468,59.906135 5.5972,-0.377757 4.48617,7.603887 c 0.11696,2.320355 0.18077,4.642045 0.1791,6.961396 l -1.30671,0.0036 -8.95576,-14.191159"
         style="fill:#b21212;fill-opacity:1;fill-rule:evenodd;stroke:none;stroke-width:1.95772803"
         id="path534"
         inkscape:connector-curvature="0" />
      <path
         d="m 125.53453,87.536317 5.60118,-0.37378 7.62817,-14.898851 c -0.001,-0.131262 0.005,-0.26985 -0.001,-0.395755 l -5.38986,0.359185 -7.83849,15.309159"
         style="fill:#b21212;fill-opacity:1;fill-rule:evenodd;stroke:none;stroke-width:1.95772803"
         id="path536"
         inkscape:connector-curvature="0" />
      <path
         d="m 16.854999,-61.058219 -0.35186,5.215775 -15.68025628,7.467388 0.37144048,-5.600856 15.0197918,-7.152408 c 0.20899,0.01695 0.426603,0.04521 0.640867,0.07011"
         style="fill:#b21212;fill-opacity:1;fill-rule:evenodd;stroke:none;stroke-width:1.95772803"
         id="path538"
         inkscape:connector-curvature="0" />
      <path
         d="m -9.4405993,-61.28846 12.8771978,8.804626 0.371767,-5.601191 -5.3520098,-3.664909 c -2.6366365,0.07841 -5.2686228,0.231899 -7.896955,0.461474"
         style="fill:#b21212;fill-opacity:1;fill-rule:evenodd;stroke:none;stroke-width:1.95772803"
         id="path540"
         inkscape:connector-curvature="0" />
      <path
         d="m 15.757274,-45.38859 -1.11998,5.605176 -16.0500231,5.597905 1.11495338,-5.600232 16.05504972,-5.602849"
         style="fill:#b21212;fill-opacity:1;fill-rule:evenodd;stroke:none;stroke-width:1.95772803"
         id="path542"
         inkscape:connector-curvature="0" />
      <path
         d="m -10.749943,-54.723113 -0.75119,5.973959 13.0705423,10.830598 1.1186493,-5.603845 -13.4380016,-11.200712"
         style="fill:#b21212;fill-opacity:1;fill-rule:evenodd;stroke:none;stroke-width:1.95772803"
         id="path544"
         inkscape:connector-curvature="0" />
      <path
         d="m 12.769807,-29.702975 -1.489077,5.223447 -16.802593,4.104446 1.8625138,-5.596884 16.4291562,-3.731009"
         style="fill:#b21212;fill-opacity:1;fill-rule:evenodd;stroke:none;stroke-width:1.95772803"
         id="path546"
         inkscape:connector-curvature="0" />
      <path
         d="m -12.619447,-41.657212 -1.119968,5.60518 11.5721312,12.32237 1.87048753,-5.604857 -12.32267173,-12.322672"
         style="fill:#b21212;fill-opacity:1;fill-rule:evenodd;stroke:none;stroke-width:1.95772803"
         id="path548"
         inkscape:connector-curvature="0" />
      <path
         d="m 8.2879311,-14.024686 -1.8674989,4.8576571 -17.1703802,2.2395965 2.2376087,-5.2277666 16.8002704,-1.869487"
         style="fill:#b21212;fill-opacity:1;fill-rule:evenodd;stroke:none;stroke-width:1.95772803"
         id="path550"
         inkscape:connector-curvature="0" />
      <path
         d="m -15.60925,-28.959429 -1.862861,5.597198 10.4568474,13.4443266 1.8628445,-5.5972146 -10.4568309,-13.44431"
         style="fill:#b21212;fill-opacity:1;fill-rule:evenodd;stroke:none;stroke-width:1.95772803"
         id="path552"
         inkscape:connector-curvature="0" />
      <path
         d="M 2.3176269,0.1651836 -0.67217543,5.3876218 -17.473107,5.7693464 -14.85639,0.91338028 2.3176269,0.1651836"
         style="fill:#b21212;fill-opacity:1;fill-rule:evenodd;stroke:none;stroke-width:1.95772803"
         id="path554"
         inkscape:connector-curvature="0" />
      <path
         d="m -20.085831,-16.263316 -2.613368,4.859315 9.32824,14.5530098 2.620028,-4.8526636 -9.3349,-14.5596612"
         style="fill:#b21212;fill-opacity:1;fill-rule:evenodd;stroke:none;stroke-width:1.95772803"
         id="path556"
         inkscape:connector-curvature="0" />
      <path
         d="m -5.1534028,14.354044 -3.3576054,4.852643 -17.1783498,-1.493417 3.739335,-4.483546 16.7966202,1.12432"
         style="fill:#b21212;fill-opacity:1;fill-rule:evenodd;stroke:none;stroke-width:1.95772803"
         id="path558"
         inkscape:connector-curvature="0" />
      <path
         d="m -25.688671,-4.6934697 -2.988467,5.23441335 7.468694,14.93074535 3.361912,-4.850336 -7.842139,-15.3148227"
         style="fill:#b21212;fill-opacity:1;fill-rule:evenodd;stroke:none;stroke-width:1.95772803"
         id="path560"
         inkscape:connector-curvature="0" />
      <path
         d="m -14.108202,27.794039 -3.740661,4.484873 -16.800911,-3.365893 3.732688,-4.476899 16.808884,3.357919"
         style="fill:#b21212;fill-opacity:1;fill-rule:evenodd;stroke:none;stroke-width:1.95772803"
         id="path562"
         inkscape:connector-curvature="0" />
      <path
         d="m -32.407185,6.5102391 -3.731,4.4819099 6.344733,16.054706 3.359255,-4.103466 -5.972946,-16.4331081"
         style="fill:#b21212;fill-opacity:1;fill-rule:evenodd;stroke:none;stroke-width:1.95772803"
         id="path564"
         inkscape:connector-curvature="0" />
      <path
         d="m -24.193952,40.119038 -4.481575,3.730666 -16.057034,-4.853982 4.108783,-4.108782 16.429826,5.232098"
         style="fill:#b21212;fill-opacity:1;fill-rule:evenodd;stroke:none;stroke-width:1.95772803"
         id="path566"
         inkscape:connector-curvature="0" />
      <path
         d="m -40.620748,16.969748 -3.732687,4.4769 4.103475,16.056715 4.107786,-4.107786 -4.478574,-16.425829"
         style="fill:#b21212;fill-opacity:1;fill-rule:evenodd;stroke:none;stroke-width:1.95772803"
         id="path568"
         inkscape:connector-curvature="0" />
      <path
         d="m -35.77075,50.945011 -4.850337,3.361913 -15.312181,-6.349744 4.109142,-3.358233 16.053417,6.346106"
         style="fill:#b21212;fill-opacity:1;fill-rule:evenodd;stroke:none;stroke-width:1.95772803"
         id="path570"
         inkscape:connector-curvature="0" />
      <path
         d="m -49.58252,26.675733 -4.479557,3.735345 2.60971,16.799572 4.482906,-3.731997 -2.613059,-16.80292"
         style="fill:#b21212;fill-opacity:1;fill-rule:evenodd;stroke:none;stroke-width:1.95772803"
         id="path572"
         inkscape:connector-curvature="0" />
      <path
         d="m -48.461209,60.652009 -4.854015,3.358894 -14.937376,-8.212889 4.853974,-3.358937 14.937417,8.212932"
         style="fill:#b21212;fill-opacity:1;fill-rule:evenodd;stroke:none;stroke-width:1.95772803"
         id="path574"
         inkscape:connector-curvature="0" />
      <path
         d="m -59.664959,35.263051 -4.481203,2.986165 0.744196,17.176663 4.481909,-2.986789 -0.744902,-17.176039"
         style="fill:#b21212;fill-opacity:1;fill-rule:evenodd;stroke:none;stroke-width:1.95772803"
         id="path576"
         inkscape:connector-curvature="0" />
      <path
         d="m -61.903547,69.615765 -5.232735,2.235963 -14.183215,-9.704649 5.222773,-2.245925 14.193177,9.714611"
         style="fill:#b21212;fill-opacity:1;fill-rule:evenodd;stroke:none;stroke-width:1.95772803"
         id="path578"
         inkscape:connector-curvature="0" />
      <path
         d="m -70.119777,42.727794 -4.854015,2.614683 -1.116289,16.804594 4.85065,-2.611401 1.119654,-16.807876"
         style="fill:#b21212;fill-opacity:1;fill-rule:evenodd;stroke:none;stroke-width:1.95772803"
         id="path580"
         inkscape:connector-curvature="0" />
      <path
         d="m -76.096736,76.3336 -5.598186,1.870513 -12.694799,-11.206375 5.229412,-1.488428 13.063573,10.82429"
         style="fill:#b21212;fill-opacity:1;fill-rule:evenodd;stroke:none;stroke-width:1.95772803"
         id="path582"
         inkscape:connector-curvature="0" />
      <path
         d="m -81.694938,49.080162 -5.222757,2.239295 -2.621367,16.801242 5.232752,-2.242594 2.611372,-16.797943"
         style="fill:#b21212;fill-opacity:1;fill-rule:evenodd;stroke:none;stroke-width:1.95772803"
         id="path584"
         inkscape:connector-curvature="0" />
      <path
         d="m -91.406247,81.935122 -5.594862,1.122977 -11.575171,-12.325999 5.59488,-1.116306 11.575136,12.319345"
         style="fill:#b21212;fill-opacity:1;fill-rule:evenodd;stroke:none;stroke-width:1.95772803"
         id="path586"
         inkscape:connector-curvature="0" />
      <path
         d="m -94.017648,53.934131 -5.226072,1.491769 -4.48188,16.429139 5.229424,-1.495058 4.478528,-16.42585"
         style="fill:#b21212;fill-opacity:1;fill-rule:evenodd;stroke:none;stroke-width:1.95772803"
         id="path588"
         inkscape:connector-curvature="0" />
      <path
         d="m -106.70911,86.041573 -5.60152,0.37211 -10.4555,-13.438998 5.5982,-0.37543 10.45882,13.442318"
         style="fill:#b21212;fill-opacity:1;fill-rule:evenodd;stroke:none;stroke-width:1.95772803"
         id="path590"
         inkscape:connector-curvature="0" />
      <path
         d="m -106.34031,58.037288 -5.5982,1.119637 -5.97031,15.684936 5.2261,-0.747535 6.34241,-16.057038"
         style="fill:#b21212;fill-opacity:1;fill-rule:evenodd;stroke:none;stroke-width:1.95772803"
         id="path592"
         inkscape:connector-curvature="0" />
      <path
         d="m -122.39071,88.287507 -5.97697,-0.0033 -4.26258,-7.232785 c -0.13622,-2.441945 -0.20932,-4.88057 -0.21264,-7.329157 h 1.11632 l 9.33587,14.565287"
         style="fill:#b21212;fill-opacity:1;fill-rule:evenodd;stroke:none;stroke-width:1.95772803"
         id="path594"
         inkscape:connector-curvature="0" />
      <path
         d="m -119.40721,60.651996 -5.5982,0.375425 -7.4687,14.937397 5.60152,-0.378749 7.46538,-14.934073"
         style="fill:#b21212;fill-opacity:1;fill-rule:evenodd;stroke:none;stroke-width:1.95772803"
         id="path596"
         inkscape:connector-curvature="0" />
    </g>
    <path
       inkscape:connector-curvature="0"
       id="path598"
       style="fill:#b38754;fill-opacity:1;fill-rule:evenodd;stroke:none;stroke-width:3.69005203"
       d="m 11.053119,-0.87621399 v 0"
       inkscape:export-xdpi="25.4"
       inkscape:export-ydpi="25.4" />
    <path
       inkscape:connector-curvature="0"
       id="path600"
       style="fill:#ffffff;fill-opacity:1;fill-rule:evenodd;stroke:none;stroke-width:3.69005203"
       d="m 11.053119,-0.87621399 v 0"
       inkscape:export-xdpi="25.4"
       inkscape:export-ydpi="25.4" />
    <g
       id="g4665"
       transform="matrix(0.85368218,0,0,0.85368218,-13.994014,-5.5353188)">
      <text
         inkscape:export-ydpi="25.4"
         inkscape:export-xdpi="25.4"
         id="text5192"
         y="27.898129"
         x="-319.1644"
         style="font-style:normal;font-variant:normal;font-weight:bold;font-stretch:normal;font-size:183.77177429px;line-height:1.25;font-family:'Open Sans';-inkscape-font-specification:'Open Sans Bold';letter-spacing:0px;word-spacing:0px;fill:#3f51b5;fill-opacity:1;stroke:#ffffff;stroke-width:19.94814873;stroke-miterlimit:4;stroke-dasharray:none;stroke-opacity:1"
         xml:space="preserve"><tspan
           style="font-style:normal;font-variant:normal;font-weight:800;font-stretch:normal;font-family:'Open Sans';-inkscape-font-specification:'Open Sans Ultra-Bold';fill:#3f51b5;fill-opacity:1;stroke:#ffffff;stroke-width:19.94814873;stroke-miterlimit:4;stroke-dasharray:none;stroke-opacity:1"
           y="27.898129"
           x="-319.1644"
           id="tspan5190"
           sodipodi:role="line">OMC</tspan></text>
      <text
         inkscape:export-ydpi="25.4"
         inkscape:export-xdpi="25.4"
         id="text5192-4"
         y="27.898117"
         x="-319.1644"
         style="font-style:normal;font-variant:normal;font-weight:bold;font-stretch:normal;font-size:183.77177429px;line-height:1.25;font-family:'Open Sans';-inkscape-font-specification:'Open Sans Bold';letter-spacing:0px;word-spacing:0px;fill:#3f51b5;fill-opacity:1;stroke:none;stroke-width:9.97407436;stroke-miterlimit:4;stroke-dasharray:none;stroke-opacity:1"
         xml:space="preserve"><tspan
           style="font-style:normal;font-variant:normal;font-weight:800;font-stretch:normal;font-family:'Open Sans';-inkscape-font-specification:'Open Sans Ultra-Bold';fill:#3f51b5;fill-opacity:1;stroke:none;stroke-width:9.97407436;stroke-miterlimit:4;stroke-dasharray:none;stroke-opacity:1"
           y="27.898117"
           x="-319.1644"
           id="tspan5190-5"
           sodipodi:role="line">OMC</tspan></text>
    </g>
  </g>
</svg>
